<svg xmlns="http://www.w3.org/2000/svg" width="480" height="480" viewBox="0 0 480 480" fill="#2eb1a7"><path d="M154.5 302A118.35 118.35 0 1 1 325.8 302C314.8 313.6 300.8 344.5 300.8 358.5H179.5C179.5 344.5 165.5 313.6 154.5 302ZM181 397.8H299.2V417.7A59.1 59.1 0 0 1 181 417.7Z"/><rect x="220.2" y="3.5" width="39.8" height="79"/><rect x="3.5" y="220.2" width="79" height="39.8"/><rect x="397.8" y="220.2" width="79" height="39.8"/><rect x="-39.15" y="-19.9" width="78.3" height="39.8" transform="translate(100.75 100.75) rotate(45)"/><rect x="-39.15" y="-19.9" width="78.3" height="39.8" transform="translate(379.5 100.75) rotate(-45)"/></svg>
