<svg xmlns="http://www.w3.org/2000/svg" width="960" height="652" viewBox="0 0 960 652"><path fill="#b2b2b2" d="M0.0 326.0L0.0 0.0L480.0 0.0L960.0 0.0L960.0 326.0L960.0 652.0L480.0 652.0L0.0 652.0L0.0 326.0Z"/><path fill="#ffffff" d="M164.0 552.5C121.9 544.5 87.8 512.4 78.0 471.5C76.3 464.5 73.8 448.4 74.0 445.5C76.1 407.1 90.9 377.5 118.2 357.0C162.0 323.9 222.9 328.9 261.0 368.6C318.7 428.7 291.3 528.3 210.9 550.6C199.0 553.9 176.0 554.8 164.0 552.5Z"/><path fill="#c1c1c1" d="M98.6 651.2C98.3 650.7 120.0 628.5 146.8 601.7C189.2 559.4 195.9 553.0 198.5 553.0C200.2 553.0 202.4 552.7 203.6 552.4C204.8 552.1 183.2 574.4 155.6 601.9C110.5 647.0 105.2 652.0 102.3 652.0C100.5 652.0 98.9 651.6 98.6 651.2ZM198.0 595.5L254.5 539.0L257.0 541.5L259.5 544.0L205.5 598.0L151.5 652.0L146.5 652.0L141.5 652.0L198.0 595.5ZM233.7 605.8L279.8 559.7L282.6 561.4L285.3 563.2L240.9 607.6L196.5 652.0L192.0 652.0L187.5 652.0L233.7 605.8ZM271.5 613.0L310.5 574.0L314.4 575.1L318.3 576.2L280.4 614.1L242.5 652.0L237.5 652.0L232.5 652.0L271.5 613.0ZM314.5 616.0L350.5 580.0L355.0 580.0L359.5 580.0L323.5 616.0L287.5 652.0L283.0 652.0L278.5 652.0L314.5 616.0ZM365.5 609.9C401.9 573.5 408.6 567.2 415.9 562.8C420.6 560.0 427.3 555.4 430.9 552.7C435.0 549.7 417.9 567.4 385.5 599.9L333.5 652.0L328.5 652.0L323.5 652.0L365.5 609.9ZM515.5 506.0L661.5 360.0L662.8 363.8L664.1 367.5L521.3 509.7L378.5 651.9L374.0 652.0L369.5 652.0L515.5 506.0ZM541.6 525.6C611.4 456.1 668.8 398.9 669.2 398.5C669.6 398.1 670.2 399.5 670.6 401.5L671.3 405.2L547.9 528.6L424.5 652.0L419.6 652.0L414.8 652.0L541.6 525.6ZM567.0 545.5L673.5 439.0L673.8 443.7L674.1 448.4L572.3 550.2L470.5 652.0L465.5 652.0L460.5 652.0L567.0 545.5ZM589.0 569.5C634.3 524.2 671.5 487.2 671.6 487.3C671.7 487.4 671.4 489.7 671.0 492.4C670.3 497.2 670.0 497.5 592.9 574.6L515.5 652.0L511.0 652.0L506.5 652.0L589.0 569.5ZM605.0 598.5C634.4 569.1 658.5 545.2 658.7 545.3C658.8 545.5 658.0 548.6 656.8 552.3L654.6 558.9L607.9 605.5L561.3 652.0L556.4 652.0L551.5 652.0L605.0 598.5ZM605.5 644.0C609.9 639.6 613.6 636.0 613.8 636.0C614.0 636.0 611.3 639.6 607.9 644.0C603.7 649.5 601.1 652.0 599.6 652.0C598.0 652.0 599.3 650.3 605.5 644.0ZM80.5 626.4L78.8 623.7L115.6 586.9C135.9 566.6 151.9 550.0 151.1 550.0C150.3 550.0 149.9 549.8 150.2 549.5C150.4 549.2 152.2 549.5 154.1 550.1C156.0 550.7 158.2 551.4 158.9 551.6C159.9 551.9 146.7 565.8 122.0 590.5C100.8 611.7 83.2 629.0 82.9 629.0C82.5 629.0 81.5 627.8 80.5 626.4ZM63.8 598.3L62.1 595.5L91.7 565.8C117.7 539.8 121.2 535.9 120.0 534.5C119.3 533.7 121.0 534.4 123.7 536.2C126.5 538.0 129.6 540.1 130.6 540.7C132.1 541.7 132.0 541.7 129.7 540.8C126.9 539.6 126.6 540.0 96.2 570.3L65.5 601.0L63.8 598.3ZM49.2 566.8L48.0 563.5L73.0 538.5C91.4 520.0 97.8 513.1 97.0 512.2C95.1 509.9 97.6 512.5 105.5 521.0C110.3 526.1 111.3 527.4 108.0 524.3L102.5 519.0L77.0 544.5C63.0 558.5 51.3 570.0 51.0 570.0C50.7 570.0 49.9 568.5 49.2 566.8ZM179.8 554.3C182.1 554.1 185.7 554.1 187.8 554.3C189.8 554.5 187.9 554.7 183.5 554.7C179.1 554.7 177.4 554.5 179.8 554.3ZM38.2 532.9L37.2 529.5L59.0 507.5C71.0 495.4 80.9 484.9 81.1 484.2C81.3 483.5 82.2 484.9 83.0 487.2L84.5 491.5L61.8 513.9L39.1 536.3L38.2 532.9ZM454.4 529.6C457.0 526.3 461.3 520.0 463.9 515.6C468.2 508.3 477.4 498.8 558.9 417.5C608.5 368.0 649.4 327.4 649.8 327.2C650.2 327.1 651.0 328.3 651.6 329.9C652.7 332.8 652.3 333.2 551.2 434.1C495.4 489.9 451.8 532.8 454.4 529.6ZM251.0 530.7C251.0 530.5 252.5 529.1 254.2 527.4L257.5 524.5L254.6 527.8C251.8 530.8 251.0 531.5 251.0 530.7ZM264.0 517.5C265.9 515.6 267.6 514.0 267.9 514.0C268.2 514.0 266.9 515.6 265.0 517.5C263.1 519.4 261.4 521.0 261.1 521.0C260.8 521.0 262.1 519.4 264.0 517.5ZM30.7 496.8C29.2 491.5 30.0 490.5 51.9 468.6C74.6 445.9 75.2 445.5 74.8 453.3C74.7 456.1 71.7 459.5 53.0 477.8C33.4 497.1 31.2 498.9 30.7 496.8ZM280.2 493.5C281.4 491.1 282.5 489.2 282.8 489.4C283.2 489.9 279.2 498.0 278.5 498.0C278.2 498.0 279.0 496.0 280.2 493.5ZM75.2 461.5C75.2 459.9 75.4 459.3 75.7 460.3C75.9 461.2 75.9 462.6 75.7 463.3C75.4 463.9 75.2 463.1 75.2 461.5ZM291.2 456.0C291.2 454.1 291.4 453.3 291.7 454.2C291.9 455.2 291.9 456.8 291.7 457.8C291.4 458.7 291.2 457.9 291.2 456.0ZM27.0 453.0L27.0 448.5L60.6 415.0C92.6 383.0 93.9 381.8 89.6 388.9C87.1 393.0 84.5 397.7 83.9 399.4C83.2 401.2 71.2 413.9 54.8 430.0L27.0 457.5L27.0 453.0ZM482.5 452.2C483.1 447.5 483.6 447.0 558.8 371.8C600.4 330.1 634.8 296.0 635.2 296.0C635.6 296.0 636.6 297.3 637.4 298.8L638.9 301.6L561.2 379.3C518.5 422.0 483.1 457.0 482.6 457.0C482.2 457.0 482.1 454.9 482.5 452.2ZM74.3 438.0C74.3 435.0 74.5 433.7 74.7 435.2C74.9 436.8 74.9 439.2 74.7 440.8C74.5 442.3 74.3 441.0 74.3 438.0ZM291.2 433.0C291.2 431.1 291.4 430.3 291.7 431.2C291.9 432.2 291.9 433.8 291.7 434.8C291.4 435.7 291.2 434.9 291.2 433.0ZM477.5 411.9C476.8 408.8 478.3 407.2 547.6 337.9L618.4 267.1L620.2 269.8L622.0 272.5L550.7 343.8C511.6 382.9 479.2 415.0 478.8 415.0C478.5 415.0 477.8 413.6 477.5 411.9ZM30.0 403.9L30.7 398.8L165.6 263.9L300.6 129.0L305.8 128.1C308.6 127.7 311.0 127.6 311.0 127.9C311.0 128.7 30.7 409.0 29.9 409.0C29.6 409.0 29.7 406.7 30.0 403.9ZM463.6 380.2L462.1 377.4L530.4 309.1L598.7 240.8L600.9 243.6L603.1 246.4L534.8 314.7C497.2 352.3 466.2 383.0 465.8 383.0C465.4 383.0 464.4 381.7 463.6 380.2ZM259.0 366.5C254.9 362.4 251.8 359.0 252.1 359.0C252.3 359.0 255.9 362.4 260.0 366.5C264.1 370.6 267.2 374.0 266.9 374.0C266.7 374.0 263.1 370.6 259.0 366.5ZM106.0 366.8C110.1 362.3 111.0 361.5 111.0 362.3C111.0 362.5 108.9 364.6 106.2 367.0L101.5 371.5L106.0 366.8ZM443.5 355.0C441.6 352.9 442.2 352.3 509.3 285.2L577.0 217.5L579.2 219.8L581.5 222.0L514.0 289.5C476.9 326.6 446.2 357.0 445.9 357.0C445.6 357.0 444.5 356.1 443.5 355.0ZM243.2 353.6C238.6 350.3 237.9 349.3 241.8 351.6C243.7 352.6 245.6 354.1 246.2 354.8C247.7 356.5 247.0 356.2 243.2 353.6ZM236.0 239.6L350.5 125.0L354.7 125.0C357.1 125.0 359.0 125.2 359.0 125.5C359.0 125.7 310.4 174.4 251.0 233.6C191.6 292.9 143.2 341.5 143.4 341.8C143.7 342.0 140.3 344.0 135.8 346.2C131.4 348.3 126.3 351.0 124.6 352.2C122.9 353.3 173.0 302.7 236.0 239.6ZM42.2 350.0C42.5 349.2 43.4 346.2 44.4 343.5C45.9 338.9 53.5 331.0 143.2 241.4C236.8 147.9 240.7 144.1 246.4 142.1C249.6 140.9 252.4 140.1 252.7 140.3C253.0 140.6 46.3 347.6 42.3 351.0C41.9 351.3 41.9 350.8 42.2 350.0ZM233.0 347.5C230.5 346.1 226.5 344.1 224.0 343.0C221.5 341.9 220.6 341.3 221.9 341.6C224.0 342.2 236.2 330.3 327.9 238.7L431.5 135.2L434.8 136.2C436.5 136.6 438.0 137.5 438.0 137.9C438.0 138.4 391.4 185.1 334.5 241.6C277.6 298.2 231.0 344.8 231.0 345.1C231.0 345.5 232.4 346.3 234.0 347.0C235.7 347.7 237.3 348.7 237.6 349.1C238.3 350.4 238.1 350.3 233.0 347.5ZM365.7 246.7C462.6 150.0 466.5 146.3 469.0 147.3C470.4 147.9 471.7 148.6 472.0 148.7C472.2 148.9 431.7 189.8 382.0 239.6C309.1 312.4 290.3 330.7 285.4 333.5C282.1 335.4 276.7 338.9 273.4 341.2C270.2 343.6 266.9 345.9 266.3 346.3C265.6 346.8 310.3 301.9 365.7 246.7ZM418.8 335.4C417.2 334.6 416.0 333.6 416.0 333.2C416.0 332.8 446.8 301.7 484.3 264.2L552.7 195.8L555.4 198.2L558.1 200.5L489.8 268.7L421.5 336.9L418.8 335.4ZM169.2 335.3C170.2 335.1 171.8 335.1 172.8 335.3C173.7 335.6 172.9 335.8 171.0 335.8C169.1 335.8 168.3 335.6 169.2 335.3ZM186.5 335.0C180.0 334.6 179.3 334.3 182.6 334.0C187.1 333.5 179.0 341.3 373.1 148.3L393.8 127.7L397.6 128.4L401.3 129.2L298.5 232.0C232.6 297.9 196.2 334.9 197.1 335.3C198.7 335.9 198.0 335.9 186.5 335.0ZM385.2 321.3C384.0 321.1 383.0 320.7 383.0 320.5C383.0 320.3 415.3 288.0 454.7 248.7L526.5 177.2L529.3 178.8L532.0 180.5L461.3 251.2C422.4 290.2 389.8 321.9 389.0 321.9C388.2 321.8 386.5 321.5 385.2 321.3ZM419.1 238.4L497.4 160.1L500.2 161.6C501.7 162.4 503.0 163.4 503.0 163.8C503.0 164.2 468.9 198.5 427.2 240.2L351.5 315.8L346.1 316.3L340.8 316.7L419.1 238.4ZM87.7 259.6C88.1 258.8 92.3 253.3 97.0 247.4C111.9 228.4 140.6 200.9 159.5 187.5C161.7 185.9 146.4 201.8 125.5 222.8C104.6 243.8 87.4 261.0 87.2 261.0C87.0 261.0 87.3 260.4 87.7 259.6Z"/></svg>
